<?xml version="1.0" encoding="UTF-8" ?>
<svg version="1.1" width="21" height="21" xmlns="http://www.w3.org/2000/svg" shape-rendering="crispEdges">
<rect x="14" y="1" width="2" height="6" fill="#FFFFFF" />
<rect x="16" y="2" width="1" height="5" fill="#FFFFFF" />
<rect x="4" y="3" width="10" height="4" fill="#FFFFFF" />
<rect x="17" y="3" width="1" height="4" fill="#FFFFFF" />
<rect x="3" y="4" width="1" height="13" fill="#FFFFFF" />
<rect x="18" y="4" width="1" height="3" fill="#FFFFFF" />
<rect x="2" y="5" width="1" height="11" fill="#FFFFFF" />
<rect x="19" y="5" width="1" height="2" fill="#FFFFFF" />
<rect x="1" y="6" width="1" height="9" fill="#FFFFFF" />
<rect x="4" y="7" width="3" height="1" fill="#FFFFFF" />
<rect x="4" y="8" width="2" height="1" fill="#FFFFFF" />
<rect x="4" y="9" width="1" height="9" fill="#FFFFFF" />
<rect x="5" y="12" width="1" height="6" fill="#FFFFFF" />
<rect x="6" y="13" width="1" height="5" fill="#FFFFFF" />
<rect x="7" y="14" width="10" height="4" fill="#FFFFFF" />
<rect x="17" y="15" width="1" height="3" fill="#FFFFFF" />
</svg>