<?xml version="1.0" encoding="UTF-8" ?>
<svg version="1.1" width="21" height="21" xmlns="http://www.w3.org/2000/svg" shape-rendering="crispEdges">
<rect x="1" y="9" width="1" height="3" fill="#FFFFFF" />
<rect x="19" y="9" width="1" height="3" fill="#FFFFFF" />
<rect x="2" y="11" width="1" height="2" fill="#FFFFFF" />
<rect x="18" y="11" width="1" height="2" fill="#FFFFFF" />
<rect x="3" y="12" width="1" height="4" fill="#FFFFFF" />
<rect x="17" y="12" width="1" height="4" fill="#FFFFFF" />
<rect x="4" y="13" width="1" height="2" fill="#FFFFFF" />
<rect x="16" y="13" width="1" height="2" fill="#FFFFFF" />
<rect x="5" y="14" width="2" height="2" fill="#FFFFFF" />
<rect x="14" y="14" width="2" height="2" fill="#FFFFFF" />
<rect x="7" y="15" width="7" height="2" fill="#FFFFFF" />
<rect x="6" y="16" width="1" height="2" fill="#FFFFFF" />
<rect x="14" y="16" width="1" height="2" fill="#FFFFFF" />
<rect x="9" y="17" width="1" height="2" fill="#FFFFFF" />
<rect x="11" y="17" width="1" height="2" fill="#FFFFFF" />
</svg>