<?xml version="1.0" encoding="UTF-8" ?>
<svg version="1.1" width="21" height="21" xmlns="http://www.w3.org/2000/svg" shape-rendering="crispEdges">
<rect x="2" y="1" width="17" height="1" fill="#FFFFFF" />
<rect x="2" y="2" width="1" height="18" fill="#FFFFFF" />
<rect x="18" y="2" width="1" height="15" fill="#FFFFFF" />
<rect x="9" y="5" width="3" height="1" fill="#FFFFFF" />
<rect x="6" y="6" width="4" height="1" fill="#FFFFFF" />
<rect x="11" y="6" width="4" height="1" fill="#FFFFFF" />
<rect x="6" y="7" width="1" height="3" fill="#FFFFFF" />
<rect x="9" y="7" width="1" height="1" fill="#FFFFFF" />
<rect x="11" y="7" width="1" height="1" fill="#FFFFFF" />
<rect x="14" y="7" width="1" height="3" fill="#FFFFFF" />
<rect x="5" y="9" width="1" height="3" fill="#FFFFFF" />
<rect x="7" y="9" width="1" height="1" fill="#FFFFFF" />
<rect x="10" y="9" width="1" height="3" fill="#FFFFFF" />
<rect x="13" y="9" width="1" height="1" fill="#FFFFFF" />
<rect x="15" y="9" width="1" height="3" fill="#FFFFFF" />
<rect x="9" y="10" width="1" height="1" fill="#FFFFFF" />
<rect x="11" y="10" width="1" height="1" fill="#FFFFFF" />
<rect x="6" y="11" width="2" height="1" fill="#FFFFFF" />
<rect x="13" y="11" width="2" height="1" fill="#FFFFFF" />
<rect x="6" y="12" width="1" height="3" fill="#FFFFFF" />
<rect x="14" y="12" width="1" height="8" fill="#FFFFFF" />
<rect x="9" y="13" width="1" height="3" fill="#FFFFFF" />
<rect x="11" y="13" width="1" height="3" fill="#FFFFFF" />
<rect x="7" y="14" width="2" height="1" fill="#FFFFFF" />
<rect x="12" y="14" width="2" height="1" fill="#FFFFFF" />
<rect x="10" y="15" width="1" height="1" fill="#FFFFFF" />
<rect x="15" y="15" width="3" height="1" fill="#FFFFFF" />
<rect x="15" y="16" width="2" height="1" fill="#FFFFFF" />
<rect x="15" y="17" width="1" height="1" fill="#FFFFFF" />
<rect x="17" y="17" width="1" height="1" fill="#FFFFFF" />
<rect x="16" y="18" width="1" height="1" fill="#FFFFFF" />
<rect x="3" y="19" width="11" height="1" fill="#FFFFFF" />
<rect x="15" y="19" width="1" height="1" fill="#FFFFFF" />
</svg>