<?xml version="1.0" encoding="UTF-8" ?>
<svg version="1.1" width="21" height="21" xmlns="http://www.w3.org/2000/svg" shape-rendering="crispEdges">
<rect x="18" y="0" width="3" height="1" fill="#FFFFFF" />
<rect x="3" y="1" width="1" height="1" fill="#FFFFFF" />
<rect x="17" y="1" width="1" height="1" fill="#FFFFFF" />
<rect x="20" y="1" width="1" height="2" fill="#FFFFFF" />
<rect x="5" y="2" width="1" height="1" fill="#FFFFFF" />
<rect x="16" y="2" width="1" height="1" fill="#FFFFFF" />
<rect x="6" y="3" width="1" height="5" fill="#FFFFFF" />
<rect x="15" y="3" width="1" height="1" fill="#FFFFFF" />
<rect x="19" y="3" width="1" height="1" fill="#FFFFFF" />
<rect x="14" y="4" width="1" height="1" fill="#FFFFFF" />
<rect x="18" y="4" width="1" height="1" fill="#FFFFFF" />
<rect x="13" y="5" width="1" height="1" fill="#FFFFFF" />
<rect x="17" y="5" width="1" height="1" fill="#FFFFFF" />
<rect x="5" y="6" width="1" height="4" fill="#FFFFFF" />
<rect x="12" y="6" width="1" height="1" fill="#FFFFFF" />
<rect x="16" y="6" width="1" height="1" fill="#FFFFFF" />
<rect x="3" y="7" width="2" height="5" fill="#FFFFFF" />
<rect x="11" y="7" width="1" height="1" fill="#FFFFFF" />
<rect x="15" y="7" width="1" height="1" fill="#FFFFFF" />
<rect x="2" y="8" width="1" height="9" fill="#FFFFFF" />
<rect x="10" y="8" width="1" height="1" fill="#FFFFFF" />
<rect x="14" y="8" width="1" height="1" fill="#FFFFFF" />
<rect x="1" y="9" width="1" height="10" fill="#FFFFFF" />
<rect x="9" y="9" width="1" height="1" fill="#FFFFFF" />
<rect x="13" y="9" width="1" height="1" fill="#FFFFFF" />
<rect x="0" y="10" width="1" height="11" fill="#FFFFFF" />
<rect x="8" y="10" width="1" height="1" fill="#FFFFFF" />
<rect x="12" y="10" width="1" height="1" fill="#FFFFFF" />
<rect x="7" y="11" width="1" height="1" fill="#FFFFFF" />
<rect x="11" y="11" width="1" height="1" fill="#FFFFFF" />
<rect x="3" y="12" width="1" height="1" fill="#FFFFFF" />
<rect x="6" y="12" width="1" height="1" fill="#FFFFFF" />
<rect x="10" y="12" width="1" height="1" fill="#FFFFFF" />
<rect x="5" y="13" width="1" height="2" fill="#FFFFFF" />
<rect x="9" y="13" width="1" height="1" fill="#FFFFFF" />
<rect x="3" y="14" width="2" height="1" fill="#FFFFFF" />
<rect x="8" y="14" width="1" height="1" fill="#FFFFFF" />
<rect x="3" y="15" width="1" height="1" fill="#FFFFFF" />
<rect x="6" y="15" width="2" height="1" fill="#FFFFFF" />
<rect x="6" y="16" width="1" height="3" fill="#FFFFFF" />
<rect x="5" y="19" width="1" height="1" fill="#FFFFFF" />
<rect x="1" y="20" width="4" height="1" fill="#FFFFFF" />
</svg>