<?xml version="1.0" encoding="UTF-8" ?>
<svg version="1.1" width="21" height="21" xmlns="http://www.w3.org/2000/svg" shape-rendering="crispEdges">
<rect x="8" y="1" width="5" height="3" fill="#FFFFFF" />
<rect x="6" y="2" width="2" height="3" fill="#FFFFFF" />
<rect x="13" y="2" width="2" height="3" fill="#FFFFFF" />
<rect x="5" y="3" width="1" height="3" fill="#FFFFFF" />
<rect x="15" y="3" width="1" height="3" fill="#FFFFFF" />
<rect x="4" y="4" width="1" height="4" fill="#FFFFFF" />
<rect x="16" y="4" width="1" height="4" fill="#FFFFFF" />
<rect x="3" y="5" width="1" height="11" fill="#FFFFFF" />
<rect x="17" y="5" width="1" height="11" fill="#FFFFFF" />
<rect x="2" y="6" width="1" height="9" fill="#FFFFFF" />
<rect x="18" y="6" width="1" height="9" fill="#FFFFFF" />
<rect x="1" y="8" width="1" height="5" fill="#FFFFFF" />
<rect x="19" y="8" width="1" height="5" fill="#FFFFFF" />
<rect x="4" y="13" width="1" height="4" fill="#FFFFFF" />
<rect x="16" y="13" width="1" height="4" fill="#FFFFFF" />
<rect x="5" y="15" width="1" height="3" fill="#FFFFFF" />
<rect x="15" y="15" width="1" height="3" fill="#FFFFFF" />
<rect x="6" y="16" width="2" height="3" fill="#FFFFFF" />
<rect x="13" y="16" width="2" height="3" fill="#FFFFFF" />
<rect x="8" y="17" width="5" height="3" fill="#FFFFFF" />
</svg>