<?xml version="1.0" encoding="UTF-8" ?>
<svg version="1.1" width="21" height="21" xmlns="http://www.w3.org/2000/svg" shape-rendering="crispEdges">
<rect x="17" y="1" width="3" height="4" fill="#FFFFFF" />
<rect x="16" y="3" width="1" height="8" fill="#FFFFFF" />
<rect x="17" y="5" width="2" height="3" fill="#FFFFFF" />
<rect x="15" y="6" width="1" height="6" fill="#FFFFFF" />
<rect x="14" y="8" width="1" height="5" fill="#FFFFFF" />
<rect x="17" y="8" width="1" height="2" fill="#FFFFFF" />
<rect x="13" y="9" width="1" height="4" fill="#FFFFFF" />
<rect x="10" y="10" width="3" height="3" fill="#FFFFFF" />
<rect x="6" y="11" width="4" height="3" fill="#FFFFFF" />
<rect x="4" y="12" width="2" height="4" fill="#FFFFFF" />
<rect x="3" y="13" width="1" height="7" fill="#FFFFFF" />
<rect x="10" y="13" width="2" height="1" fill="#FFFFFF" />
<rect x="2" y="14" width="1" height="6" fill="#FFFFFF" />
<rect x="6" y="14" width="2" height="1" fill="#FFFFFF" />
<rect x="1" y="16" width="1" height="4" fill="#FFFFFF" />
<rect x="4" y="16" width="1" height="2" fill="#FFFFFF" />
</svg>