<?xml version="1.0" encoding="UTF-8" ?>
<svg version="1.1" width="21" height="21" xmlns="http://www.w3.org/2000/svg" shape-rendering="crispEdges">
<rect x="1" y="1" width="2" height="1" fill="#FFFFFF" />
<rect x="4" y="1" width="2" height="1" fill="#FFFFFF" />
<rect x="7" y="1" width="2" height="1" fill="#FFFFFF" />
<rect x="10" y="1" width="2" height="1" fill="#FFFFFF" />
<rect x="13" y="1" width="2" height="1" fill="#FFFFFF" />
<rect x="16" y="1" width="2" height="1" fill="#FFFFFF" />
<rect x="19" y="1" width="1" height="1" fill="#FFFFFF" />
<rect x="1" y="2" width="1" height="1" fill="#FFFFFF" />
<rect x="19" y="3" width="1" height="2" fill="#FFFFFF" />
<rect x="1" y="4" width="1" height="2" fill="#FFFFFF" />
<rect x="19" y="6" width="1" height="2" fill="#FFFFFF" />
<rect x="1" y="7" width="1" height="2" fill="#FFFFFF" />
<rect x="19" y="9" width="1" height="2" fill="#FFFFFF" />
<rect x="1" y="10" width="1" height="2" fill="#FFFFFF" />
<rect x="19" y="12" width="1" height="2" fill="#FFFFFF" />
<rect x="1" y="13" width="1" height="2" fill="#FFFFFF" />
<rect x="19" y="15" width="1" height="2" fill="#FFFFFF" />
<rect x="1" y="16" width="1" height="2" fill="#FFFFFF" />
<rect x="19" y="18" width="1" height="2" fill="#FFFFFF" />
<rect x="1" y="19" width="1" height="1" fill="#FFFFFF" />
<rect x="3" y="19" width="2" height="1" fill="#FFFFFF" />
<rect x="6" y="19" width="2" height="1" fill="#FFFFFF" />
<rect x="9" y="19" width="2" height="1" fill="#FFFFFF" />
<rect x="12" y="19" width="2" height="1" fill="#FFFFFF" />
<rect x="15" y="19" width="2" height="1" fill="#FFFFFF" />
<rect x="18" y="19" width="1" height="1" fill="#FFFFFF" />
</svg>